M48
;GenerationSoftware,Autodesk,EAGLE,9.7.0*%
;CreationDate,2026-05-02T18:07:51Z*%
FMAT,2
ICI,OFF
METRIC,TZ,000.000
T7C0.150
T6C0.300
T5C0.559
T4C0.650
T3C0.700
T2C1.067
T1C2.451
%
G90
M71
T1
X-8524Y15240
X-8524Y10160
X-11699Y15240
X-11699Y10160
T2
X-8524Y12700
X-13604Y13716
X-13604Y11684
T3
X2890Y12550
X-2890Y12550
T4
X4320Y16200
X-4320Y16200
X4320Y12050
X-4320Y12050
T5
X-1930Y-14779
X12811Y-14748
X9115Y-14748
X1765Y-14779
X-9089Y-14745
X-12785Y-14745
T6
X16080Y7790
X12360Y7350
X1450Y-4310
X3310Y3510
X15970Y-13260
X6810Y-12420
X22120Y-7230
X19860Y-12360
X14950Y5050
X-13130Y-12050
X-8040Y-12060
X16010Y-7720
X430Y-7790
X3010Y-8920
X16180Y-2270
X6840Y6060
X1100Y-5150
X-550Y-4830
X-7360Y13620
X8660Y11210
X4620Y-12430
X16150Y-14430
X19560Y-540
X14430Y-4830
X1060Y8070
X1210Y9250
X-6380Y3470
X3120Y-13670
X13860Y-1490
X18120Y5770
X18800Y3960
X11676Y2866
X10476Y2866
X10476Y4066
X11676Y4066
X12876Y4066
X14076Y4066
X14076Y2866
X12876Y2866
X10476Y1666
X11676Y1666
X12876Y1666
X14076Y1666
X14076Y466
X12876Y466
X11676Y466
X10476Y466
T7
X4950Y620
X16060Y-3650
X15560Y-3830
X9330Y1770
X7390Y-5700
X7390Y-8270
X10800Y-680
X8940Y-1750
X15240Y6070
X-11370Y760
X5830Y-5340
X6510Y-8950
X-14990Y-8780
X15020Y-160
X15970Y520
X9570Y-12550
X9520Y860
X8560Y1410
X3550Y-5180
X5400Y-3960
X5840Y-2210
X5840Y-1160
X-14180Y-490
X12280Y-680
X12280Y-2830
X10650Y-11400
X19990Y-3530
X17360Y-12760
X15730Y-5210
X3980Y-4750
X8720Y-4280
X9320Y2270
X16060Y-6440
X16460Y-11610
X17870Y-11380
X5520Y2710
X15770Y-4750
X18530Y-8100
X3610Y-3640
X6270Y-4320
X18530Y-7070
X18550Y-4540
X-10140Y9300
X21580Y5700
X-7400Y11790
X22510Y5300
X10645Y-10935
X-10350Y1730
X11895Y-1415
X5320Y-2750
X3070Y-2770
X18270Y-11570
X-7870Y5010
X-11740Y4750
X-13370Y-20
X12025Y5965
X-7080Y970
X9420Y2900
X-8160Y1520
X11780Y-690
X3070Y-2320
X5320Y-2310
X-13780Y-230
X12410Y5150
X250Y12350
X-750Y12340
X17990Y6910
X12660Y-880
X9570Y150
X17150Y3030
X21180Y-3470
X10405Y-890
X5340Y-570
X8930Y-990
X5340Y-1000
X1760Y9240
X1750Y1630
X15320Y4020
X10600Y5360
X6850Y-4300
X15730Y-10885
X14750Y-9880
X14750Y-8050
X6280Y-2200
X6290Y-1190
M30